<?xml version="1.0" encoding="UTF-8" standalone="no"?><!DOCTYPE svg PUBLIC "-//W3C//DTD SVG 1.1//EN" "http://www.w3.org/Graphics/SVG/1.1/DTD/svg11.dtd"><svg width="100%" height="100%" viewBox="0 0 240 192" version="1.1" xmlns="http://www.w3.org/2000/svg" xmlns:xlink="http://www.w3.org/1999/xlink" xml:space="preserve" xmlns:serif="http://www.serif.com/" style="fill-rule:evenodd;clip-rule:evenodd;stroke-linecap:round;stroke-linejoin:round;stroke-miterlimit:1.5;"><ellipse cx="56.037" cy="77.76" rx="8.328" ry="9.12" style="fill:none;stroke:#fff;stroke-width:3px;"/><ellipse cx="75.47" cy="50.4" rx="8.328" ry="9.12" style="fill:none;stroke:#fff;stroke-width:3px;"/><ellipse cx="130.992" cy="32.155" rx="8.328" ry="9.12" style="fill:none;stroke:#fff;stroke-width:3px;"/><ellipse cx="175.41" cy="165.92" rx="8.328" ry="9.12" style="fill:none;stroke:#fff;stroke-width:3px;"/><ellipse cx="167.082" cy="120.32" rx="8.328" ry="9.12" style="fill:none;stroke:#fff;stroke-width:3px;"/><ellipse cx="208.723" cy="105.12" rx="8.328" ry="9.12" style="fill:none;stroke:#fff;stroke-width:3px;"/><ellipse cx="119.888" cy="65.595" rx="8.328" ry="9.12" style="fill:none;stroke:#fff;stroke-width:3px;"/><path d="M98.224,65.6l13.336,-0.005" style="fill:none;stroke:#fff;stroke-width:3px;"/><ellipse cx="172.634" cy="53.435" rx="8.328" ry="9.12" style="fill:none;stroke:#fff;stroke-width:3px;"/><ellipse cx="111.578" cy="162.88" rx="8.328" ry="9.12" style="fill:none;stroke:#fff;stroke-width:3px;"/><ellipse cx="194.843" cy="77.76" rx="8.328" ry="9.12" style="fill:none;stroke:#fff;stroke-width:3px;"/><ellipse cx="119.888" cy="105.12" rx="8.328" ry="9.12" style="fill:none;stroke:#fff;stroke-width:3px;"/><path d="M92.145,138.56c0,0 0,18.222 0,23.12c0,0.663 0.537,1.2 1.2,1.2c2.872,0 9.904,0 9.904,0" style="fill:none;stroke:#fff;stroke-width:3px;"/><ellipse cx="86.575" cy="120.32" rx="8.328" ry="9.12" style="fill:none;stroke:#fff;stroke-width:3px;"/><ellipse cx="172.634" cy="96" rx="8.328" ry="9.12" style="fill:none;stroke:#fff;stroke-width:3px;"/><ellipse cx="42.157" cy="105.12" rx="8.328" ry="9.12" style="fill:none;stroke:#fff;stroke-width:3px;"/><path d="M98.224,9.6c0,0 -0.474,80.487 -0.538,91.287c-0.004,0.66 -0.54,1.193 -1.2,1.193c-3.855,0 -15.951,0 -19.816,0c-0.663,0 -1.2,-0.537 -1.2,-1.2c0,-4.138 0,-17.782 0,-21.92c0,-0.663 -0.537,-1.2 -1.2,-1.2c-2.872,0 -9.904,0 -9.904,0" style="fill:none;stroke:#fff;stroke-width:3px;"/><path d="M98.224,29.12c0,0 -16.86,0 -21.554,0c-0.318,0 -0.623,0.126 -0.848,0.351c-0.225,0.226 -0.352,0.531 -0.352,0.849c0,3.068 0,10.96 0,10.96" style="fill:none;stroke:#fff;stroke-width:3px;"/><path d="M42.157,114.24c0,0 0,7.892 0,10.96c0,0.663 0.537,1.2 1.2,1.2c3.863,0 15.946,0 19.809,0c0.663,0 1.2,0.537 1.2,1.2c0,2.328 0,7.432 0,9.76c0,0.318 0.126,0.623 0.351,0.849c0.225,0.225 0.531,0.351 0.849,0.351c9.815,0 76.531,0 76.531,0" style="fill:none;stroke:#fff;stroke-width:3px;"/><path d="M203.171,156.8l-61.074,-18.24l0,-60.8l44.417,0" style="fill:none;stroke:#fff;stroke-width:3px;"/><path d="M119.888,138.56l0,-24.32" style="fill:none;stroke:#fff;stroke-width:3px;"/><path d="M86.575,102.08l0,9.12" style="fill:none;stroke:#fff;stroke-width:3px;"/><path d="M47.709,77.76c0,0 -12.612,0 -15.887,0c-0.469,0 -0.895,-0.273 -1.091,-0.699c-1.379,-3.004 -6.731,-14.661 -6.731,-14.661" style="fill:none;stroke:#fff;stroke-width:3px;"/><path d="M153.201,77.76c0,0 0,12.978 0,17.04c0,0.663 0.537,1.2 1.2,1.2c2.872,0 9.905,0 9.905,0" style="fill:none;stroke:#fff;stroke-width:3px;"/><path d="M142.088,77.76l0.004,-12.16c0,0 0.633,-26.614 22.214,-12.15" style="fill:none;stroke:#fff;stroke-width:3px;"/><path d="M142.092,65.6c0,0 -11.559,-2.81 -11.095,-24.325" style="fill:none;stroke:#fff;stroke-width:3px;"/><path d="M167.082,162.88c0,0 -9.31,0 -12.681,0c-0.318,0 -0.623,-0.126 -0.848,-0.351c-0.225,-0.226 -0.352,-0.531 -0.352,-0.849c0,-4.411 0,-19.472 0,-19.472" style="fill:none;stroke:#fff;stroke-width:3px;"/><path d="M186.514,150.72l0,-18.24c0,0 16.388,0 21.009,0c0.663,0 1.2,-0.537 1.2,-1.2c0,-4.062 0,-17.04 0,-17.04" style="fill:none;stroke:#fff;stroke-width:3px;"/><path d="M186.514,132.48l-11.104,-11.871" style="fill:none;stroke:#fff;stroke-width:3px;"/><path d="M59.093,149.88c0,0 -92.128,-27.723 -26.205,-98.033c65.284,-69.629 138.383,-53.379 170.331,-6.818c31.949,46.562 43.908,93.196 0,111.841c-6.513,20.509 -6.946,48.651 -58.961,13.98c-6.88,12.695 -72.382,21.291 -85.165,-20.97Z" style="fill:none;stroke:#fff;stroke-width:3px;"/></svg>